# xmcd
#
# Track frame offsets: 
#        150
#        30395
#        43648
#        96692
#        118116
#        136312
#        152491
#        181407
#        200797
#        220134
#        237509
#        255908
#
# Disc length: 3655 seconds
#
# Revision: 2
# Processed by: cddbd v1.5.2PL0 Copyright (c) Steve Scherf et al.
# Submitted via: ExactAudioCopy v0.95b2
#
DISCID=a90e450c
DTITLE=Fleetwood Mac - Live In Boston
DYEAR=2002
DGENRE=Rock
TTITLE0=Black Magic Woman
TTITLE1=Oh Well
TTITLE2=Green Manalishi
TTITLE3=Madison Blues
TTITLE4=Jumping At Shadows
TTITLE5=World In Harmony
TTITLE6=I Can't Hold Out
TTITLE7=Like It This Way
TTITLE8=Only You
TTITLE9=Stranger Blues
TTITLE10=Teenage Darling
TTITLE11=Red Hot Mama
EXTD=Armoury\nARMCD062\nRecorded 7 Feb 1970 at the Tea Party in Boston
EXTD=MA with original Peter Green/Jeremy Spencer lineup - remained uni
EXTD=ssued until 2000\n
EXTT0=\n
EXTT1=
EXTT2=
EXTT3=
EXTT4=
EXTT5=
EXTT6=
EXTT7=
EXTT8=
EXTT9=
EXTT10=
EXTT11=
PLAYORDER=
